<?xml version="1.0" encoding="iso-8859-1"?>
<!-- Generator: Adobe Illustrator 19.0.0, SVG Export Plug-In . SVG Version: 6.00 Build 0)  -->
<svg xmlns="http://www.w3.org/2000/svg" xmlns:xlink="http://www.w3.org/1999/xlink" version="1.1" id="Layer_1" x="0px" y="0px" viewBox="0 0 512 512" style="enable-background:new 0 0 512 512;" xml:space="preserve" width="512px" height="512px">
<g>
	<g>
		<path d="M487.915,3.52C485.888,1.28,483.008,0,480,0H32c-3.029,0-5.888,1.28-7.915,3.52c-2.027,2.219-3.008,5.205-2.709,8.213    L64.043,438.4c0.405,4.16,3.243,7.723,7.232,9.045l192,64c1.088,0.384,2.24,0.555,3.371,0.555c1.28,0,2.539-0.235,3.776-0.683    l170.667-64c3.797-1.408,6.464-4.885,6.869-8.917l42.667-426.667C490.923,8.747,489.941,5.739,487.915,3.52z M427.349,429.675    l-160.917,60.352L84.565,429.397L43.755,21.333h424.427L427.349,429.675z" fill="#91DC5A"/>
	</g>
</g>
<g>
	<g>
		<path d="M402.816,110.485c-2.027-2.411-5.035-3.797-8.171-3.797h-256c-5.888,0-10.667,4.779-10.667,10.667    s4.779,10.667,10.667,10.667h243.307l-14.827,85.312H149.312c-5.888,0-10.667,4.779-10.667,10.667s4.779,10.667,10.667,10.667    h214.101l-20.907,120.171l-76.075,28.523l-86.549-28.864l-9.451-47.253c-1.131-5.76-6.699-9.536-12.544-8.363    c-5.76,1.152-9.515,6.763-8.363,12.544l10.667,53.333c0.747,3.755,3.456,6.805,7.083,8.021l96,32    c1.088,0.384,2.24,0.555,3.371,0.555c1.28,0,2.539-0.235,3.755-0.661l85.333-32c3.541-1.344,6.123-4.437,6.763-8.171    l42.667-245.333C405.696,116.075,404.843,112.896,402.816,110.485z" fill="#91DC5A"/>
	</g>
</g>
<g>
</g>
<g>
</g>
<g>
</g>
<g>
</g>
<g>
</g>
<g>
</g>
<g>
</g>
<g>
</g>
<g>
</g>
<g>
</g>
<g>
</g>
<g>
</g>
<g>
</g>
<g>
</g>
<g>
</g>
</svg>
