<?xml version="1.0" encoding="iso-8859-1"?>
<!-- Generator: Adobe Illustrator 19.0.0, SVG Export Plug-In . SVG Version: 6.00 Build 0)  -->
<svg xmlns="http://www.w3.org/2000/svg" xmlns:xlink="http://www.w3.org/1999/xlink" version="1.1" id="Layer_1" x="0px" y="0px" viewBox="0 0 512 512" style="enable-background:new 0 0 512 512;" xml:space="preserve" width="512px" height="512px">
<g>
	<g>
		<path d="M487.915,3.52C485.888,1.28,483.008,0,480,0H32c-3.029,0-5.888,1.28-7.915,3.52c-2.027,2.219-3.008,5.205-2.709,8.213    L64.043,438.4c0.405,4.16,3.243,7.723,7.232,9.045l192,64c1.088,0.384,2.24,0.555,3.371,0.555c1.28,0,2.539-0.235,3.776-0.683    l170.667-64c3.797-1.408,6.464-4.885,6.869-8.917l42.667-426.667C490.923,8.747,489.941,5.739,487.915,3.52z M427.349,429.675    l-160.917,60.352L84.565,429.397L43.755,21.333h424.427L427.349,429.675z" fill="#91DC5A"/>
	</g>
</g>
<g>
	<g>
		<path d="M403.051,110.763c-2.027-2.581-5.12-4.096-8.405-4.096H287.979c-5.888,0-10.667,4.779-10.667,10.667v128    c0,5.888,4.779,10.667,10.667,10.667h72.555l-17.92,98.539l-58.005,19.349c-5.589,1.856-8.597,7.893-6.741,13.483    c1.493,4.48,5.653,7.296,10.112,7.296c1.109,0,2.24-0.171,3.392-0.533l64-21.333c3.691-1.237,6.421-4.373,7.104-8.213    l21.333-117.333c0.576-3.115-0.277-6.315-2.304-8.747s-5.035-3.84-8.192-3.84h-74.667V128h82.325l-7.339,29.419    c-1.429,5.717,2.048,11.499,7.765,12.928c5.653,1.408,11.499-2.048,12.928-7.765l10.667-42.667    C405.781,116.715,405.077,113.344,403.051,110.763z" fill="#91DC5A"/>
	</g>
</g>
<g>
	<g>
		<path d="M245.291,106.667h-128c-5.888,0-10.667,4.779-10.667,10.667S111.403,128,117.291,128h117.333v241.856l-54.805-15.659    l-9.387-46.955c-1.152-5.76-6.677-9.536-12.544-8.363c-5.76,1.152-9.515,6.763-8.363,12.544l10.667,53.333    c0.789,3.925,3.691,7.061,7.531,8.171l74.667,21.333c0.96,0.277,1.941,0.405,2.923,0.405c2.283,0,4.544-0.747,6.4-2.155    c2.667-2.005,4.245-5.163,4.245-8.512V117.333C255.957,111.445,251.179,106.667,245.291,106.667z" fill="#91DC5A"/>
	</g>
</g>
<g>
</g>
<g>
</g>
<g>
</g>
<g>
</g>
<g>
</g>
<g>
</g>
<g>
</g>
<g>
</g>
<g>
</g>
<g>
</g>
<g>
</g>
<g>
</g>
<g>
</g>
<g>
</g>
<g>
</g>
</svg>
